# xmcd
#
# Track frame offsets:
#	150
#	2690
#	23877
#	43080
#	62622
#	81107
#	98672
#	120770
#	136260
#	171712
#	185347
#	196025
#	221747
#
# Disc length: 3180 seconds
#
# Revision: 1
# Processed by: cddbd v1.4PL0 Copyright (c) Steve Scherf et al.
# Submitted via: audiograbber 1.81.03
#
DISCID=a60c6a0d
DTITLE=Various Shell Rotella T - Farther Down The Road
DYEAR=2002
DGENRE=Southern Rock
TTITLE0=Intro
TTITLE1=Alabama -  American Pride
TTITLE2=The Doobie Brothers - Black Water
TTITLE3=Brooks and Dunn - Neon Moon
TTITLE4=Pure Prairie League - Two Lane Highway
TTITLE5=Phil Vassar - Just Another Day In Paradise
TTITLE6=The Marshall Tucker Band - Heard It In A Love Song
TTITLE7=Mindy McCready - Ten Thousand Angels
TTITLE8=Lynyrd Skynyrd - Sweet Home Alabama
TTITLE9=Aaron Tippin - You've Got To Stand For Something
TTITLE10=Diamond Rio - Unbelievable
TTITLE11=38 Special - Caught Up In You
TTITLE12=Waylon Jennings - America
EXTD=Free With Oil Change 
EXTT0=
EXTT1=
EXTT2=
EXTT3=
EXTT4=
EXTT5=
EXTT6=
EXTT7=
EXTT8=
EXTT9=
EXTT10=
EXTT11=
EXTT12=
PLAYORDER=
